# xmcd CD database file
#
# Track frame offsets:
#	150
#	20013
#	42533
#	51522
#	77807
#	106851
#	133192
#	168775
#	198035
#	221646
#	231401
#	248763
#	285662
#
# Disc length: 3953 seconds
#
# Revision: 0
# Processed by: cddbd v1.5.2PL0 Copyright (c) Steve Scherf et al.
# Submitted via: ACXtractor (MTCDDB.DLL V2003.07.15)
#
DISCID=ba0f6f0d
DTITLE=Mark Jeghers - The Bluez Projekt: Evaliation Disc 2
DYEAR=2010
DGENRE=Blues
TTITLE0=Slidin' Delta
TTITLE1=Everybody Works But Pappy
TTITLE2=Walking Blues
TTITLE3=Spirit In the Sky - Sanctified Boogie Chillin'
TTITLE4=Sadie
TTITLE5=Rats and Roaches
TTITLE6=Blues Medley (live)
TTITLE7=Yellow Dog
TTITLE8=Stack-O-Lee
TTITLE9=Salvation Fever
TTITLE10=Went Down To the Crossroad
TTITLE11=Went Down To the Crossroad (narrative version)
TTITLE12=Cat's In The Microwave
EXTD=The Bluez Projekt: Evaliation Disc 2 ID3G:   0 YEAR: 2010
EXTT0=
EXTT1=
EXTT2=
EXTT3=
EXTT4=
EXTT5=
EXTT6=Blues Medley (live) - Pride and Joy, Hush Hush, Before You Accuse Me, an
EXTT6=d The Blues Had A Baby (and they named it Rock and Roll)
EXTT7=
EXTT8=
EXTT9=
EXTT10=Went Down To the Crossroad - short version
EXTT11=Went Down To the Crossroad - long version with narrative
EXTT12=
PLAYORDER=
